<svg width="16" height="16" viewBox="0 0 16 16" fill="none" xmlns="http://www.w3.org/2000/svg">
<path fill-rule="evenodd" clip-rule="evenodd" d="M0.500061 8.01127C0.500061 4.06034 3.65756 0.5 8.01506 0.5C12.2751 0.5 15.5001 3.99274 15.5001 7.98873C15.5001 12.6232 11.7201 15.5 8.00006 15.5C6.77006 15.5 5.40506 15.1695 4.31006 14.5235C3.92756 14.2907 3.60506 14.1179 3.19256 14.2531L1.67756 14.7038C1.29506 14.824 0.950061 14.5235 1.06256 14.1179L1.56506 12.4354C1.64756 12.2026 1.63256 11.9547 1.51256 11.7594C0.867561 10.5726 0.500061 9.27316 0.500061 8.01127ZM7.02497 8.01127C7.02497 8.54457 7.45247 8.97271 7.98497 8.98022C8.51747 8.98022 8.94497 8.54457 8.94497 8.01878C8.94497 7.48548 8.51747 7.05734 7.98497 7.05734C7.45997 7.04983 7.02497 7.48548 7.02497 8.01127ZM10.4825 8.01878C10.4825 8.54457 10.91 8.98022 11.4425 8.98022C11.975 8.98022 12.4025 8.54457 12.4025 8.01878C12.4025 7.48548 11.975 7.05734 11.4425 7.05734C10.91 7.05734 10.4825 7.48548 10.4825 8.01878ZM4.52765 8.98023C4.00265 8.98023 3.56765 8.54457 3.56765 8.01879C3.56765 7.48549 3.99515 7.05734 4.52765 7.05734C5.06015 7.05734 5.48765 7.48549 5.48765 8.01879C5.48765 8.54457 5.06015 8.97272 4.52765 8.98023Z" fill="#A6ABC8"/>
</svg>
